<svg width="17" height="17" viewBox="0 0 17 17" fill="none" xmlns="http://www.w3.org/2000/svg">
<g clip-path="url(#clip0_17_107)">
<path d="M15.4821 6.98214H10.3214C10.2409 6.98214 10.1637 6.95016 10.1068 6.89323C10.0498 6.8363 10.0179 6.75908 10.0179 6.67857V1.51786C10.0179 0.679621 9.33824 0 8.5 0C7.66176 0 6.98214 0.679621 6.98214 1.51786V6.67857C6.98214 6.75908 6.95016 6.8363 6.89323 6.89323C6.8363 6.95016 6.75908 6.98214 6.67857 6.98214H1.51786C0.679621 6.98214 0 7.66176 0 8.5C0 9.33824 0.679621 10.0179 1.51786 10.0179H6.67857C6.75908 10.0179 6.8363 10.0498 6.89323 10.1068C6.95016 10.1637 6.98214 10.2409 6.98214 10.3214V15.4821C6.98214 16.3204 7.66176 17 8.5 17C9.33824 17 10.0179 16.3204 10.0179 15.4821V10.3214C10.0179 10.2409 10.0498 10.1637 10.1068 10.1068C10.1637 10.0498 10.2409 10.0179 10.3214 10.0179H15.4821C16.3204 10.0179 17 9.33824 17 8.5C17 7.66176 16.3204 6.98214 15.4821 6.98214Z" fill="white"/>
</g>
<defs>
<clipPath id="clip0_17_107">
<rect width="17" height="17" fill="white"/>
</clipPath>
</defs>
</svg>
