<svg width="40" height="40" viewBox="0 0 40 40" fill="none" xmlns="http://www.w3.org/2000/svg">
<g clip-path="url(#clip0_17_28)" filter="url(#filter0_d_17_28)">
<path d="M12.5 19.1615C12.6989 19.1615 12.8897 19.0825 13.0303 18.9418C13.171 18.8012 13.25 18.6104 13.25 18.4115C13.25 16.3077 14.069 14.3307 15.5563 12.8428C15.6969 12.7021 15.7759 12.5114 15.7759 12.3125C15.7759 12.1136 15.6969 11.9229 15.5563 11.7822C15.4156 11.6416 15.2249 11.5626 15.026 11.5626C14.8271 11.5626 14.6364 11.6416 14.4957 11.7822C13.6225 12.6508 12.9301 13.6839 12.4588 14.8218C11.9875 15.9598 11.7466 17.1798 11.75 18.4115C11.75 18.6104 11.829 18.8012 11.9697 18.9418C12.1103 19.0825 12.3011 19.1615 12.5 19.1615ZM27.5 19.1615C27.6989 19.1615 27.8897 19.0825 28.0303 18.9418C28.171 18.8012 28.25 18.6104 28.25 18.4115C28.25 15.9072 27.275 13.553 25.5043 11.7822C25.3636 11.6416 25.1729 11.5626 24.974 11.5626C24.7751 11.5626 24.5844 11.6416 24.4438 11.7822C24.3031 11.9229 24.2241 12.1136 24.2241 12.3125C24.2241 12.5114 24.3031 12.7021 24.4438 12.8428C25.1773 13.5724 25.7588 14.4403 26.1546 15.3961C26.5505 16.352 26.7529 17.3769 26.75 18.4115C26.75 18.6104 26.829 18.8012 26.9697 18.9418C27.1103 19.0825 27.3011 19.1615 27.5 19.1615ZM12.9657 23.6847C13.5252 23.2127 13.9748 22.6242 14.283 21.9602C14.5912 21.2963 14.7506 20.573 14.75 19.841V17.75C14.75 15.1108 16.7105 12.926 19.25 12.56V11.75C19.25 11.5511 19.329 11.3603 19.4697 11.2197C19.6103 11.079 19.8011 11 20 11C20.1989 11 20.3897 11.079 20.5303 11.2197C20.671 11.3603 20.75 11.5511 20.75 11.75V12.56C23.2902 12.926 25.25 15.1108 25.25 17.75V19.841C25.2497 20.5745 25.4099 21.2991 25.7193 21.9642C26.0287 22.6292 26.4798 23.2185 27.041 23.6908C27.2438 23.8656 27.3884 24.0982 27.4553 24.3575C27.5223 24.6168 27.5084 24.8904 27.4156 25.1415C27.3227 25.3927 27.1554 25.6095 26.9359 25.763C26.7164 25.9164 26.4553 25.9991 26.1875 26H13.8125C13.0887 26 12.5 25.4113 12.5 24.6875C12.5 24.3035 12.6673 23.9405 12.9657 23.6847ZM20 29C19.352 28.9991 18.7241 28.7748 18.2222 28.365C17.7202 27.9551 17.3749 27.3848 17.2445 26.75H22.7555C22.6251 27.3848 22.2798 27.9551 21.7778 28.365C21.2759 28.7748 20.648 28.9991 20 29Z" fill="white"/>
</g>
<defs>
<filter id="filter0_d_17_28" x="0" y="0" width="40" height="40" filterUnits="userSpaceOnUse" color-interpolation-filters="sRGB">
<feFlood flood-opacity="0" result="BackgroundImageFix"/>
<feColorMatrix in="SourceAlpha" type="matrix" values="0 0 0 0 0 0 0 0 0 0 0 0 0 0 0 0 0 0 127 0" result="hardAlpha"/>
<feOffset/>
<feGaussianBlur stdDeviation="5.5"/>
<feColorMatrix type="matrix" values="0 0 0 0 1 0 0 0 0 1 0 0 0 0 1 0 0 0 0.2 0"/>
<feBlend mode="normal" in2="BackgroundImageFix" result="effect1_dropShadow_17_28"/>
<feBlend mode="normal" in="SourceGraphic" in2="effect1_dropShadow_17_28" result="shape"/>
</filter>
<clipPath id="clip0_17_28">
<rect width="18" height="18" fill="white" transform="matrix(-1 0 0 1 29 11)"/>
</clipPath>
</defs>
</svg>
