<svg width="22" height="22" viewBox="0 0 22 22" fill="none" xmlns="http://www.w3.org/2000/svg">
<g clip-path="url(#clip0_17_152)">
<path d="M17.0421 8.3499C16.9828 8.27556 16.9109 8.29017 16.8732 8.30534C16.8416 8.31814 16.7692 8.35905 16.7793 8.46157C16.7913 8.58468 16.798 8.71019 16.7993 8.83467C16.8047 9.35107 16.5975 9.85698 16.231 10.2227C15.8668 10.586 15.3878 10.7818 14.8778 10.7761C14.1811 10.7672 13.6032 10.4038 13.2067 9.72524C12.8788 9.16411 13.0229 8.44039 13.1755 7.67413C13.2648 7.22562 13.3571 6.76181 13.3571 6.3204C13.3571 2.88337 11.0465 0.900447 9.66918 0.0243577C9.64069 0.00626782 9.61358 -9.15527e-05 9.58956 -9.15527e-05C9.5505 -9.15527e-05 9.51956 0.0167522 9.50431 0.0270647C9.47475 0.0470881 9.42744 0.0927209 9.44265 0.173502C9.9691 2.96913 8.39885 4.65055 6.73639 6.43065C5.0228 8.26555 3.08057 10.3453 3.08057 14.0961C3.08057 18.4543 6.62622 22 10.9845 22C14.5729 22 17.7367 19.4982 18.6782 15.916C19.3203 13.4736 18.6475 10.3623 17.0421 8.3499ZM11.1816 20.3129C10.0903 20.3627 9.05245 19.9713 8.25972 19.2133C7.4755 18.4634 7.0257 17.4169 7.0257 16.3421C7.0257 14.3251 7.7969 12.8444 9.87118 10.8787C9.90512 10.8465 9.93988 10.8363 9.97018 10.8363C9.99763 10.8363 10.0214 10.8447 10.0378 10.8525C10.0723 10.8692 10.129 10.9103 10.1214 10.9993C10.0472 11.8624 10.0485 12.5787 10.1252 13.1285C10.3211 14.533 11.3492 15.4766 12.6836 15.4766C13.3379 15.4766 13.961 15.2304 14.4384 14.7833C14.4568 14.7656 14.4793 14.7527 14.5039 14.7456C14.5284 14.7386 14.5543 14.7377 14.5793 14.743C14.6108 14.7498 14.6528 14.7691 14.6749 14.8222C14.8728 15.3001 14.9739 15.8073 14.9755 16.3298C14.9818 18.432 13.2799 20.2189 11.1816 20.3129Z" fill="black"/>
</g>
<defs>
<clipPath id="clip0_17_152">
<rect width="22" height="22" fill="white"/>
</clipPath>
</defs>
</svg>
