<svg width="22" height="22" viewBox="0 0 22 22" fill="none" xmlns="http://www.w3.org/2000/svg">
<g clip-path="url(#clip0_17_144)">
<path d="M10.0545 1.87318C10.2539 1.57412 10.1701 1.16978 9.86834 0.974534L8.52213 0.103471C8.22616 -0.0880404 7.83123 -0.00622789 7.63568 0.287077L5.96875 2.78743L8.57588 4.09097L10.0545 1.87318ZM12.345 5.97554L13.5654 4.14494C13.7648 3.84588 13.681 3.44154 13.3793 3.24629L12.0331 2.37523C11.7371 2.18372 11.3422 2.26553 11.1466 2.55883L9.73788 4.67195L12.345 5.97554ZM12.6376 9.2189L13.818 9.74351C13.9569 9.80526 14.1132 9.81589 14.2593 9.77354C14.4053 9.73118 14.5317 9.63855 14.616 9.51204L16.7992 6.23735C16.9985 5.93828 16.9148 5.53395 16.613 5.3387L15.544 4.64694C15.248 4.45543 14.8531 4.53724 14.6575 4.83055L12.363 8.27235C12.1415 8.6048 12.2725 9.05665 12.6376 9.2189ZM19.8468 7.43115L18.7777 6.73944C18.4818 6.54792 18.0868 6.62974 17.8913 6.92304L15.9338 9.85935C15.7122 10.1918 15.8432 10.6436 16.2083 10.8059L17.3887 11.3305C17.5276 11.3922 17.684 11.4029 17.83 11.3605C17.976 11.3182 18.1024 11.2255 18.1867 11.099L20.0329 8.32975C20.2323 8.03078 20.1485 7.62644 19.8468 7.43115Z" fill="black"/>
<path d="M17.6503 12.6752H17.6502C17.3797 12.6755 17.1122 12.6187 16.8652 12.5084L10.842 9.83151H10.4347L13.1423 15.2466C13.3061 15.5743 13.1646 15.9747 12.8258 16.1246C12.5085 16.2651 12.1364 16.1173 11.9812 15.8069L8.99345 9.83151H6.23606C5.889 9.83151 5.59037 9.5648 5.57404 9.21813C5.5566 8.84799 5.85153 8.54244 6.21784 8.54244H10.2889C10.5044 8.54244 10.7056 8.43472 10.8252 8.25541L11.2195 7.6639C11.4346 7.34134 11.3182 6.90327 10.9714 6.72989L5.75717 4.12276C5.61666 4.05251 5.45533 4.03599 5.3035 4.07631C5.15167 4.11663 5.01979 4.21102 4.93265 4.34173L1.9669 8.79042C1.89329 8.90082 1.85556 9.03125 1.85884 9.1639C1.86212 9.29655 1.90627 9.42496 1.98525 9.53158L6.73574 15.9447C6.79241 16.0212 6.83142 16.1093 6.84999 16.2026C6.86856 16.296 6.86621 16.3923 6.84312 16.4847L5.66449 21.1991C5.56278 21.6059 5.87048 22 6.28977 22H16.0376C16.3936 22 16.6822 21.7114 16.6822 21.3554V17.9153C16.6822 17.8094 16.7083 17.7051 16.7582 17.6116C16.8081 17.5182 16.8802 17.4385 16.9683 17.3796C16.9683 17.3796 17.13 17.2715 17.3692 17.112C18.4296 16.4051 19.0626 15.2222 19.0626 13.9478V12.0613C18.882 12.2552 18.6634 12.4097 18.4204 12.5153C18.1774 12.621 17.9152 12.6754 17.6503 12.6752Z" fill="black"/>
</g>
<defs>
<clipPath id="clip0_17_144">
<rect width="22" height="22" fill="white"/>
</clipPath>
</defs>
</svg>
