<svg width="20" height="20" viewBox="0 0 20 20" fill="none" xmlns="http://www.w3.org/2000/svg">
<g clip-path="url(#clip0_20_225)">
<path d="M19.7595 5.72793L14.1828 0.151172C14.1349 0.103256 14.078 0.0652454 14.0154 0.039312C13.9528 0.0133785 13.8858 3.05176e-05 13.818 3.05176e-05C13.7503 3.05176e-05 13.6832 0.0133785 13.6206 0.039312C13.558 0.0652454 13.5011 0.103256 13.4532 0.151172L13.4296 0.174802C13.261 0.342507 13.1272 0.542001 13.0362 0.761733C12.9452 0.981466 12.8986 1.21707 12.8992 1.45492C12.8992 1.76644 12.9784 2.06536 13.1254 2.33045L7.2903 7.33834C6.84371 6.93922 6.27372 6.72078 5.66998 6.72078C5.35003 6.71989 5.03308 6.78247 4.73749 6.90492C4.44189 7.02736 4.17352 7.20722 3.94792 7.4341L3.91294 7.46908C3.86502 7.51697 3.82701 7.57383 3.80108 7.63642C3.77515 7.69901 3.7618 7.76609 3.7618 7.83384C3.7618 7.90158 3.77515 7.96867 3.80108 8.03125C3.82701 8.09384 3.86502 8.1507 3.91294 8.1986L7.25387 11.5395L4.00003 14.7933C3.93492 14.8602 2.39477 16.4473 1.38222 17.7103C0.41795 18.9127 0.227263 19.133 0.217357 19.1444C0.131105 19.2427 0.0854419 19.3701 0.0896187 19.5008C0.0937954 19.6315 0.1475 19.7557 0.239852 19.8483C0.287752 19.8965 0.344719 19.9347 0.407466 19.9608C0.470213 19.9868 0.537497 20.0002 0.605437 20.0001C0.726474 20.0001 0.84782 19.9578 0.945433 19.8725C0.953997 19.865 1.16924 19.678 2.3795 18.7076C3.64228 17.6951 5.22938 16.1548 5.3015 16.0845L8.55009 12.836L11.7121 15.998C11.8128 16.0988 11.9449 16.1491 12.0769 16.1491C12.2088 16.1491 12.341 16.0988 12.4416 15.998L12.4766 15.963C12.7035 15.7374 12.8833 15.469 13.0058 15.1734C13.1282 14.8778 13.1908 14.5609 13.1899 14.2409C13.1915 13.643 12.9715 13.0658 12.5724 12.6206L17.5802 6.78547C17.8481 6.93419 18.1494 7.01204 18.4558 7.01166C18.9394 7.01166 19.394 6.82334 19.7359 6.48128L19.7595 6.45765C19.8074 6.40974 19.8455 6.35286 19.8714 6.29026C19.8973 6.22765 19.9107 6.16055 19.9107 6.09279C19.9107 6.02503 19.8973 5.95793 19.8714 5.89532C19.8455 5.83272 19.8074 5.77584 19.7595 5.72793Z" fill="white"/>
</g>
<defs>
<clipPath id="clip0_20_225">
<rect width="20" height="20" fill="white"/>
</clipPath>
</defs>
</svg>
