<svg width="21" height="21" viewBox="0 0 21 21" fill="none" xmlns="http://www.w3.org/2000/svg">
<path d="M1.86173 13.7662L0.664069 5.98171C0.644588 5.8542 0.663504 5.72378 0.718406 5.60706C0.773308 5.49034 0.861712 5.3926 0.972356 5.3263C1.083 5.26 1.21088 5.22813 1.33969 5.23476C1.46851 5.24139 1.59244 5.28622 1.69569 5.36353L5.42713 8.16178C5.52409 8.23453 5.63487 8.28673 5.75269 8.3152C5.87052 8.34367 5.99291 8.3478 6.11239 8.32735C6.23187 8.30689 6.34591 8.26228 6.44756 8.19623C6.5492 8.13019 6.6363 8.04411 6.70354 7.94324L9.81023 3.28124C9.88596 3.16795 9.98846 3.07508 10.1086 3.01085C10.2288 2.94663 10.363 2.91302 10.4993 2.91302C10.6356 2.91302 10.7697 2.94663 10.8899 3.01085C11.0101 3.07508 11.1126 3.16795 11.1884 3.28124L14.295 7.94062C14.3623 8.04148 14.4494 8.12757 14.551 8.19361C14.6527 8.25965 14.7667 8.30427 14.8862 8.32472C15.0057 8.34518 15.1281 8.34105 15.2459 8.31258C15.3637 8.28411 15.4745 8.2319 15.5714 8.15915L19.3029 5.3609C19.4061 5.28359 19.5301 5.23877 19.6589 5.23214C19.7877 5.22551 19.9156 5.25738 20.0262 5.32368C20.1369 5.38998 20.2253 5.48772 20.2802 5.60444C20.3351 5.72116 20.354 5.85158 20.3345 5.97909L19.1369 13.7635L1.86173 13.7662ZM1.86173 15.206H19.1382V17.1846C19.1382 17.3029 19.1149 17.42 19.0696 17.5294C19.0243 17.6387 18.9579 17.738 18.8743 17.8217C18.7906 17.9054 18.6913 17.9717 18.5819 18.017C18.4726 18.0623 18.3555 18.0856 18.2371 18.0856H2.76276C2.64443 18.0856 2.52726 18.0623 2.41795 18.017C2.30863 17.9717 2.2093 17.9054 2.12563 17.8217C1.95666 17.6527 1.86173 17.4235 1.86173 17.1846V15.206Z" fill="white"/>
</svg>
