<svg width="18" height="18" viewBox="0 0 18 18" fill="none" xmlns="http://www.w3.org/2000/svg">
<path d="M8.20349 1.44851C6.41514 1.45151 4.70089 2.16326 3.43633 3.42782C2.17178 4.69237 1.46003 6.40662 1.45703 8.19497C1.45853 9.98483 2.16943 11.7011 3.43399 12.9678C4.69855 14.2345 6.41364 14.9483 8.20349 14.9528C9.79089 14.9528 11.2536 14.3943 12.4101 13.4702L15.2192 16.2794C15.3615 16.4117 15.5496 16.4837 15.7439 16.4803C15.9382 16.4769 16.1236 16.3984 16.2612 16.2611C16.3988 16.1239 16.4778 15.9387 16.4818 15.7444C16.4857 15.5501 16.4142 15.3619 16.2822 15.2192L13.4731 12.4073C14.4325 11.214 14.9556 9.7289 14.9556 8.1978C14.9556 4.47875 11.9225 1.44851 8.20349 1.44851ZM8.20349 2.95088C11.1118 2.95088 13.4533 5.28946 13.4533 8.19497C13.4533 11.1005 11.1118 13.4532 8.20349 13.4532C5.29514 13.4532 2.95656 11.109 2.95656 8.20064C2.95656 5.29229 5.29514 2.95088 8.20349 2.95088Z" fill="white" fill-opacity="0.4"/>
</svg>
