<svg width="40" height="38" viewBox="0 0 40 38" fill="none" xmlns="http://www.w3.org/2000/svg">
<g filter="url(#filter0_d_17_31)">
<path d="M27.4306 16.66C27.1024 16.6123 26.7892 16.4912 26.5142 16.3057C26.2393 16.1202 26.0098 15.875 25.8427 15.5885C25.6757 15.302 25.5754 14.9814 25.5494 14.6508C25.5234 14.3201 25.5723 13.9879 25.6925 13.6787C25.7689 13.4767 25.7802 13.2557 25.7247 13.0469C25.6692 12.8381 25.5498 12.6519 25.3831 12.5144C24.6474 11.8966 23.81 11.4112 22.9081 11.08C22.7028 11.0037 22.4786 10.9942 22.2675 11.0528C22.0564 11.1113 21.8692 11.235 21.7325 11.4062C21.5268 11.6693 21.2639 11.8821 20.9637 12.0284C20.6635 12.1747 20.334 12.2507 20 12.2507C19.6661 12.2507 19.3365 12.1747 19.0363 12.0284C18.7362 11.8821 18.4732 11.6693 18.2675 11.4062C18.1308 11.235 17.9436 11.1113 17.7325 11.0528C17.5214 10.9942 17.2972 11.0037 17.0919 11.08C16.2592 11.3858 15.4807 11.8225 14.7856 12.3737C14.6104 12.5124 14.4843 12.7036 14.4255 12.9192C14.3668 13.1348 14.3787 13.3635 14.4594 13.5719C14.5892 13.8892 14.6428 14.2325 14.616 14.5742C14.5891 14.916 14.4826 15.2467 14.3048 15.5399C14.1271 15.833 13.8831 16.0804 13.5925 16.2623C13.3018 16.4441 12.9726 16.5553 12.6313 16.5869C12.4096 16.6106 12.2015 16.7048 12.0374 16.8557C11.8734 17.0066 11.7621 17.2061 11.72 17.425C11.6153 17.9435 11.5625 18.4711 11.5625 19C11.5617 19.4428 11.5975 19.8849 11.6694 20.3219C11.7052 20.5478 11.8144 20.7556 11.9801 20.9132C12.1458 21.0708 12.3589 21.1694 12.5863 21.1937C12.9351 21.2265 13.2711 21.3423 13.566 21.5315C13.8609 21.7207 14.1062 21.9779 14.2813 22.2813C14.4565 22.5848 14.5564 22.9258 14.5727 23.2758C14.589 23.6259 14.5212 23.9747 14.375 24.2931C14.2793 24.5003 14.2556 24.7334 14.3076 24.9556C14.3596 25.1777 14.4843 25.3762 14.6619 25.5194C15.3932 26.126 16.2226 26.6034 17.1144 26.9312C17.2284 26.9707 17.3481 26.9916 17.4688 26.9931C17.6342 26.9928 17.7972 26.9527 17.944 26.8764C18.0908 26.8 18.2172 26.6896 18.3125 26.5544C18.513 26.2623 18.7817 26.0235 19.0954 25.8588C19.4091 25.6942 19.7582 25.6085 20.1125 25.6094C20.4558 25.6098 20.7942 25.6904 21.1008 25.8447C21.4075 25.999 21.6739 26.2227 21.8788 26.4981C22.0151 26.6813 22.2081 26.8143 22.4279 26.8764C22.6476 26.9385 22.8818 26.9261 23.0938 26.8412C23.9092 26.5131 24.6684 26.0595 25.3438 25.4969C25.5134 25.3566 25.6342 25.1661 25.6888 24.9529C25.7434 24.7396 25.7289 24.5145 25.6475 24.31C25.5152 23.9968 25.4575 23.6571 25.479 23.3178C25.5005 22.9785 25.6005 22.6488 25.7713 22.3547C25.942 22.0607 26.1788 21.8104 26.4629 21.6236C26.7469 21.4367 27.0705 21.3185 27.4081 21.2781C27.6271 21.2478 27.8307 21.1487 27.9894 20.9949C28.1482 20.8412 28.2539 20.6409 28.2913 20.4231C28.3816 19.9539 28.4305 19.4777 28.4375 19C28.4376 18.4961 28.3905 17.9933 28.2969 17.4981C28.2589 17.2851 28.1548 17.0895 27.9993 16.939C27.8438 16.7886 27.6448 16.6909 27.4306 16.66ZM22.8125 19C22.8125 19.5563 22.6476 20.1 22.3385 20.5625C22.0295 21.025 21.5902 21.3855 21.0763 21.5984C20.5624 21.8113 19.9969 21.867 19.4513 21.7585C18.9057 21.6499 18.4046 21.3821 18.0113 20.9887C17.6179 20.5954 17.3501 20.0943 17.2416 19.5487C17.133 19.0031 17.1887 18.4376 17.4016 17.9237C17.6145 17.4098 17.975 16.9705 18.4375 16.6615C18.9 16.3524 19.4438 16.1875 20 16.1875C20.7459 16.1875 21.4613 16.4838 21.9887 17.0113C22.5162 17.5387 22.8125 18.2541 22.8125 19Z" fill="white"/>
</g>
<defs>
<filter id="filter0_d_17_31" x="0" y="-1" width="40" height="40" filterUnits="userSpaceOnUse" color-interpolation-filters="sRGB">
<feFlood flood-opacity="0" result="BackgroundImageFix"/>
<feColorMatrix in="SourceAlpha" type="matrix" values="0 0 0 0 0 0 0 0 0 0 0 0 0 0 0 0 0 0 127 0" result="hardAlpha"/>
<feOffset/>
<feGaussianBlur stdDeviation="5.5"/>
<feColorMatrix type="matrix" values="0 0 0 0 1 0 0 0 0 1 0 0 0 0 1 0 0 0 0.2 0"/>
<feBlend mode="normal" in2="BackgroundImageFix" result="effect1_dropShadow_17_31"/>
<feBlend mode="normal" in="SourceGraphic" in2="effect1_dropShadow_17_31" result="shape"/>
</filter>
</defs>
</svg>
