<svg width="22" height="22" viewBox="0 0 22 22" fill="none" xmlns="http://www.w3.org/2000/svg">
<g clip-path="url(#clip0_17_128)">
<path d="M5.21948 7.13779C5.30645 8.1782 5.50617 9.60334 5.95807 11.0997C6.91782 14.2775 8.61328 16.5371 11 17.8212C13.3867 16.5371 15.0821 14.2775 16.0419 11.0997C16.4938 9.60347 16.6934 8.17828 16.7805 7.13779L11 4.24754L5.21948 7.13779Z" fill="black"/>
<path d="M20.7047 5.14151C20.6988 5.02766 20.6628 4.91742 20.6004 4.82203C20.5379 4.72664 20.4513 4.64953 20.3493 4.59855L11.2883 0.0680152C11.1988 0.0232762 11.1001 -1.52588e-05 11.0001 -1.52588e-05C10.9 -1.52588e-05 10.8013 0.0232762 10.7118 0.0680152L1.6508 4.59855C1.54883 4.64953 1.46221 4.72664 1.39977 4.82203C1.33734 4.91742 1.30133 5.02766 1.29541 5.14151C1.28853 5.27342 1.13952 8.41435 2.20948 12.061C2.84258 14.2186 3.7738 16.1031 4.97727 17.6621C6.49385 19.6267 8.44309 21.072 10.7708 21.9578C10.9185 22.014 11.0816 22.014 11.2293 21.9578C13.5571 21.072 15.5063 19.6267 17.0229 17.6621C18.2263 16.1031 19.1576 14.2186 19.7907 12.061C20.8606 8.41435 20.7116 5.27342 20.7047 5.14151ZM11.2857 19.1241C11.1969 19.1681 11.0992 19.1909 11.0001 19.1909C10.901 19.1909 10.8032 19.1681 10.7144 19.1241C7.84445 17.7051 5.82904 15.1307 4.72423 11.4724C4.17165 9.6427 3.97215 7.91853 3.90211 6.79439C3.89423 6.66811 3.9237 6.54231 3.98684 6.43267C4.04997 6.32303 4.14399 6.2344 4.25716 6.17783L10.7119 2.95049C10.8014 2.90576 10.9001 2.88247 11.0001 2.88247C11.1002 2.88247 11.1989 2.90576 11.2884 2.95049L17.7431 6.17783C17.8563 6.23441 17.9503 6.32304 18.0134 6.43269C18.0766 6.54234 18.106 6.66815 18.0982 6.79443C18.0281 7.91866 17.8286 9.64287 17.276 11.4724C16.1711 15.1307 14.1557 17.7051 11.2857 19.1241Z" fill="black"/>
</g>
<defs>
<clipPath id="clip0_17_128">
<rect width="22" height="22" fill="white"/>
</clipPath>
</defs>
</svg>
