<svg width="40" height="12" viewBox="0 0 40 12" fill="none" xmlns="http://www.w3.org/2000/svg">
<g clip-path="url(#clip0_21_396)">
<path d="M11.664 4.35241L7.99338 3.81905L6.35177 0.492819C6.2082 0.201866 5.79192 0.201725 5.64823 0.492819L4.00666 3.81905L0.336 4.35241C0.0149769 4.39908 -0.113953 4.79489 0.118594 5.02153L2.7747 7.61062L2.14765 11.2665C2.13527 11.3386 2.14333 11.4128 2.17091 11.4806C2.19848 11.5484 2.24448 11.6071 2.3037 11.6501C2.36292 11.6932 2.433 11.7188 2.506 11.724C2.57901 11.7293 2.65204 11.714 2.71683 11.68L6 9.95398C9.57436 11.8331 9.32885 11.7251 9.46568 11.7251C9.70746 11.7251 9.89363 11.5071 9.85235 11.2665L9.22533 7.61062L11.8815 5.02153C12.1137 4.79505 11.9853 4.39912 11.664 4.35241Z" fill="#F7AC16"/>
<path d="M6.00002 0.273964C5.92682 0.273968 5.85508 0.294449 5.79291 0.333091C5.73073 0.371734 5.68061 0.426998 5.6482 0.492636L4.00664 3.81886L0.336 4.35223C0.0149769 4.39889 -0.113953 4.79471 0.118594 5.02135L2.7747 7.61044L2.14765 11.2663C2.13527 11.3384 2.14333 11.4126 2.17091 11.4804C2.19848 11.5482 2.24448 11.6069 2.3037 11.6499C2.36292 11.693 2.433 11.7186 2.506 11.7238C2.57901 11.7291 2.65204 11.7139 2.71683 11.6798L6 9.95379H6.00002V0.273964Z" fill="#F2D422"/>
<path d="M0.336 4.35223C0.0149769 4.39889 -0.113953 4.79471 0.118594 5.02135L2.7747 7.61044L2.14765 11.2663C2.13527 11.3384 2.14333 11.4126 2.17091 11.4804C2.19848 11.5482 2.24448 11.6069 2.3037 11.65C2.36292 11.693 2.433 11.7186 2.506 11.7238C2.57901 11.7291 2.65204 11.7139 2.71683 11.6798L6 9.95379C9.57436 11.8329 9.32885 11.7249 9.46568 11.7249C9.54853 11.7249 9.62926 11.6987 9.69628 11.65L4.00664 3.81884L0.336 4.35223Z" fill="#F7AC16"/>
<path d="M4.18495 7.15887C1.33978 4.38549 1.46208 4.53413 1.4239 4.3903C1.40836 4.33252 1.40517 4.2653 1.42207 4.1944L0.336 4.35221C0.0149769 4.39887 -0.113953 4.79469 0.118594 5.02133L2.7747 7.61042L2.14765 11.2663C2.13527 11.3384 2.14333 11.4126 2.17091 11.4804C2.19849 11.5482 2.24448 11.6069 2.3037 11.65C2.36292 11.693 2.433 11.7186 2.506 11.7238C2.57901 11.7291 2.65204 11.7139 2.71683 11.6798L3.68215 11.1723C3.63293 11.128 3.59573 11.072 3.574 11.0095C3.55228 10.947 3.54674 10.88 3.55791 10.8147L4.18495 7.15887Z" fill="#F48B19"/>
<path d="M0.118613 5.02135L2.77471 7.61044L2.14767 11.2663C2.13529 11.3384 2.14335 11.4126 2.17093 11.4804C2.1985 11.5482 2.2445 11.6069 2.30372 11.65C2.36294 11.693 2.43302 11.7186 2.50602 11.7238C2.57903 11.7291 2.65206 11.7139 2.71685 11.6798L6.00002 9.9538C9.57438 11.8329 9.32887 11.7249 9.4657 11.7249C9.70748 11.7249 9.89364 11.5069 9.85237 11.2663L9.22535 7.61044L0.0193086 4.61921C-0.0265586 4.78362 0.0193555 4.92465 0.118613 5.02135Z" fill="#F2D422"/>
<path d="M0.118613 5.02135L2.77471 7.61044L2.14767 11.2663C2.13529 11.3384 2.14335 11.4126 2.17093 11.4804C2.1985 11.5482 2.2445 11.6069 2.30372 11.65C2.36294 11.693 2.43302 11.7186 2.50602 11.7238C2.57903 11.7291 2.65206 11.7139 2.71685 11.6798L3.68217 11.1723C3.63295 11.128 3.59575 11.072 3.57402 11.0095C3.5523 10.947 3.54676 10.88 3.55793 10.8147L4.18497 7.15887L2.35971 5.37966L0.0193086 4.61921C-0.0265586 4.78362 0.0193555 4.92465 0.118613 5.02135Z" fill="#EFB616"/>
<path d="M2.14774 11.2663C2.13536 11.3384 2.14342 11.4126 2.171 11.4804C2.19857 11.5482 2.24457 11.6069 2.30379 11.65C2.36301 11.693 2.43309 11.7186 2.50609 11.7238C2.5791 11.7291 2.65213 11.7139 2.71692 11.6798L6.00009 9.95379C9.57445 11.8329 9.32894 11.7249 9.46577 11.7249C9.70755 11.7249 9.89371 11.5069 9.85244 11.2663L9.22542 7.61044L11.8815 5.02135C11.9339 4.97025 11.971 4.90551 11.9885 4.83445C12.0061 4.76339 12.0034 4.68885 11.9808 4.61923L2.77478 7.61044L2.14774 11.2663Z" fill="#F7AC16"/>
<path d="M2.14774 11.2663C2.13536 11.3384 2.14342 11.4126 2.171 11.4804C2.19857 11.5482 2.24457 11.6069 2.30379 11.6499C2.36301 11.693 2.43309 11.7186 2.50609 11.7238C2.5791 11.7291 2.65213 11.7139 2.71692 11.6798L3.68224 11.1723C3.63302 11.128 3.59582 11.072 3.57409 11.0095C3.55237 10.947 3.54683 10.8799 3.558 10.8147L4.18504 7.15887L4.17991 7.15388L2.77478 7.61044L2.14774 11.2663Z" fill="#F48B19"/>
<path d="M2.71684 11.6798L5.99999 9.95379C9.57435 11.8329 9.32884 11.7249 9.46567 11.7249C9.70745 11.7249 9.89362 11.5069 9.85234 11.2663L9.22532 7.61044L11.8814 5.02135C12.1137 4.79487 11.9853 4.39894 11.664 4.35223L7.99335 3.81886L2.30371 11.65C2.36293 11.693 2.43301 11.7186 2.50602 11.7238C2.57903 11.7291 2.65205 11.7139 2.71684 11.6798Z" fill="#F2D422"/>
<path d="M11.9807 4.61921L5.99999 6.56246L2.30371 11.65C2.36293 11.693 2.433 11.7186 2.50601 11.7239C2.57901 11.7291 2.65203 11.7139 2.71682 11.6798L5.99999 9.9538C9.57435 11.8329 9.32884 11.7249 9.46567 11.7249C9.70745 11.7249 9.89362 11.5069 9.85234 11.2663L9.22532 7.61044L11.8814 5.02135C11.9339 4.97025 11.9709 4.90551 11.9885 4.83445C12.006 4.76338 12.0033 4.68883 11.9807 4.61921Z" fill="#F7AC16"/>
<path d="M9.22534 7.61044L5.99999 6.56245L2.30371 11.65C2.36293 11.693 2.433 11.7186 2.50601 11.7238C2.57901 11.7291 2.65203 11.7139 2.71682 11.6798L5.99999 9.95379C9.57435 11.8329 9.32884 11.7249 9.46567 11.7249C9.70745 11.7249 9.89362 11.5069 9.85234 11.2663L9.22534 7.61044Z" fill="#F2D422"/>
<path d="M2.30371 11.65C2.36293 11.693 2.433 11.7186 2.50601 11.7238C2.57901 11.7291 2.65203 11.7139 2.71682 11.6798L5.99999 9.95379C9.57435 11.8329 9.32884 11.7249 9.46567 11.7249C9.54852 11.7249 9.62925 11.6987 9.69627 11.65L5.99999 6.56245L2.30371 11.65Z" fill="#F7AC16"/>
<path d="M6.00002 6.5625L5.99999 6.56245L2.30371 11.65C2.36293 11.693 2.433 11.7186 2.50601 11.7238C2.57901 11.7291 2.65203 11.7139 2.71682 11.6798L5.99999 9.95379H6.00002V6.5625Z" fill="#F2D422"/>
<path d="M3.75794 9.6484L2.30371 11.65C2.36293 11.693 2.433 11.7186 2.50601 11.7238C2.57901 11.7291 2.65203 11.7139 2.71682 11.6798L3.68214 11.1723C3.63292 11.128 3.59572 11.072 3.57399 11.0095C3.55227 10.947 3.54673 10.8799 3.5579 10.8147L3.75794 9.6484Z" fill="#EFB616"/>
</g>
<g clip-path="url(#clip1_21_396)">
<path d="M25.664 4.35241L21.9934 3.81905L20.3518 0.492819C20.2082 0.201866 19.7919 0.201725 19.6482 0.492819L18.0067 3.81905L14.336 4.35241C14.015 4.39908 13.886 4.79489 14.1186 5.02153L16.7747 7.61062L16.1476 11.2665C16.1353 11.3386 16.1433 11.4128 16.1709 11.4806C16.1985 11.5484 16.2445 11.6071 16.3037 11.6501C16.3629 11.6932 16.433 11.7188 16.506 11.724C16.579 11.7293 16.652 11.714 16.7168 11.68L20 9.95398C23.5744 11.8331 23.3289 11.7251 23.4657 11.7251C23.7075 11.7251 23.8936 11.5071 23.8524 11.2665L23.2253 7.61062L25.8815 5.02153C26.1137 4.79505 25.9853 4.39912 25.664 4.35241Z" fill="#F7AC16"/>
<path d="M20 0.273964C19.9268 0.273968 19.8551 0.294449 19.7929 0.333091C19.7307 0.371734 19.6806 0.426998 19.6482 0.492636L18.0066 3.81886L14.336 4.35223C14.015 4.39889 13.886 4.79471 14.1186 5.02135L16.7747 7.61044L16.1476 11.2663C16.1353 11.3384 16.1433 11.4126 16.1709 11.4804C16.1985 11.5482 16.2445 11.6069 16.3037 11.6499C16.3629 11.693 16.433 11.7186 16.506 11.7238C16.579 11.7291 16.652 11.7139 16.7168 11.6798L20 9.95379H20V0.273964Z" fill="#F2D422"/>
<path d="M14.336 4.35223C14.015 4.39889 13.886 4.79471 14.1186 5.02135L16.7747 7.61044L16.1476 11.2663C16.1353 11.3384 16.1433 11.4126 16.1709 11.4804C16.1985 11.5482 16.2445 11.6069 16.3037 11.65C16.3629 11.693 16.433 11.7186 16.506 11.7238C16.579 11.7291 16.652 11.7139 16.7168 11.6798L20 9.95379C23.5744 11.8329 23.3289 11.7249 23.4657 11.7249C23.5485 11.7249 23.6293 11.6987 23.6963 11.65L18.0066 3.81884L14.336 4.35223Z" fill="#F7AC16"/>
<path d="M18.185 7.15887C15.3398 4.38549 15.4621 4.53413 15.4239 4.3903C15.4084 4.33252 15.4052 4.2653 15.4221 4.1944L14.336 4.35221C14.015 4.39887 13.886 4.79469 14.1186 5.02133L16.7747 7.61042L16.1476 11.2663C16.1353 11.3384 16.1433 11.4126 16.1709 11.4804C16.1985 11.5482 16.2445 11.6069 16.3037 11.65C16.3629 11.693 16.433 11.7186 16.506 11.7238C16.579 11.7291 16.652 11.7139 16.7168 11.6798L17.6821 11.1723C17.6329 11.128 17.5957 11.072 17.574 11.0095C17.5523 10.947 17.5467 10.88 17.5579 10.8147L18.185 7.15887Z" fill="#F48B19"/>
<path d="M14.1186 5.02135L16.7747 7.61044L16.1477 11.2663C16.1353 11.3384 16.1433 11.4126 16.1709 11.4804C16.1985 11.5482 16.2445 11.6069 16.3037 11.65C16.3629 11.693 16.433 11.7186 16.506 11.7238C16.579 11.7291 16.6521 11.7139 16.7168 11.6798L20 9.9538C23.5744 11.8329 23.3289 11.7249 23.4657 11.7249C23.7075 11.7249 23.8936 11.5069 23.8524 11.2663L23.2253 7.61044L14.0193 4.61921C13.9734 4.78362 14.0194 4.92465 14.1186 5.02135Z" fill="#F2D422"/>
<path d="M14.1186 5.02135L16.7747 7.61044L16.1477 11.2663C16.1353 11.3384 16.1433 11.4126 16.1709 11.4804C16.1985 11.5482 16.2445 11.6069 16.3037 11.65C16.3629 11.693 16.433 11.7186 16.506 11.7238C16.579 11.7291 16.6521 11.7139 16.7168 11.6798L17.6822 11.1723C17.633 11.128 17.5957 11.072 17.574 11.0095C17.5523 10.947 17.5468 10.88 17.5579 10.8147L18.185 7.15887L16.3597 5.37966L14.0193 4.61921C13.9734 4.78362 14.0194 4.92465 14.1186 5.02135Z" fill="#EFB616"/>
<path d="M16.1477 11.2663C16.1354 11.3384 16.1434 11.4126 16.171 11.4804C16.1986 11.5482 16.2446 11.6069 16.3038 11.65C16.363 11.693 16.4331 11.7186 16.5061 11.7238C16.5791 11.7291 16.6521 11.7139 16.7169 11.6798L20.0001 9.95379C23.5744 11.8329 23.3289 11.7249 23.4658 11.7249C23.7075 11.7249 23.8937 11.5069 23.8524 11.2663L23.2254 7.61044L25.8815 5.02135C25.9339 4.97025 25.971 4.90551 25.9885 4.83445C26.0061 4.76339 26.0034 4.68885 25.9808 4.61923L16.7748 7.61044L16.1477 11.2663Z" fill="#F7AC16"/>
<path d="M16.1477 11.2663C16.1354 11.3384 16.1434 11.4126 16.171 11.4804C16.1986 11.5482 16.2446 11.6069 16.3038 11.6499C16.363 11.693 16.4331 11.7186 16.5061 11.7238C16.5791 11.7291 16.6521 11.7139 16.7169 11.6798L17.6822 11.1723C17.633 11.128 17.5958 11.072 17.5741 11.0095C17.5524 10.947 17.5468 10.8799 17.558 10.8147L18.185 7.15887L18.1799 7.15388L16.7748 7.61044L16.1477 11.2663Z" fill="#F48B19"/>
<path d="M16.7168 11.6798L20 9.95379C23.5744 11.8329 23.3288 11.7249 23.4657 11.7249C23.7075 11.7249 23.8936 11.5069 23.8523 11.2663L23.2253 7.61044L25.8814 5.02135C26.1137 4.79487 25.9853 4.39894 25.664 4.35223L21.9934 3.81886L16.3037 11.65C16.3629 11.693 16.433 11.7186 16.506 11.7238C16.579 11.7291 16.6521 11.7139 16.7168 11.6798Z" fill="#F2D422"/>
<path d="M25.9807 4.61921L20 6.56246L16.3037 11.65C16.3629 11.693 16.433 11.7186 16.506 11.7239C16.579 11.7291 16.652 11.7139 16.7168 11.6798L20 9.9538C23.5744 11.8329 23.3288 11.7249 23.4657 11.7249C23.7075 11.7249 23.8936 11.5069 23.8523 11.2663L23.2253 7.61044L25.8814 5.02135C25.9339 4.97025 25.9709 4.90551 25.9885 4.83445C26.006 4.76338 26.0033 4.68883 25.9807 4.61921Z" fill="#F7AC16"/>
<path d="M23.2253 7.61044L20 6.56245L16.3037 11.65C16.3629 11.693 16.433 11.7186 16.506 11.7238C16.579 11.7291 16.652 11.7139 16.7168 11.6798L20 9.95379C23.5744 11.8329 23.3288 11.7249 23.4657 11.7249C23.7075 11.7249 23.8936 11.5069 23.8523 11.2663L23.2253 7.61044Z" fill="#F2D422"/>
<path d="M16.3037 11.65C16.3629 11.693 16.433 11.7186 16.506 11.7238C16.579 11.7291 16.652 11.7139 16.7168 11.6798L20 9.95379C23.5744 11.8329 23.3288 11.7249 23.4657 11.7249C23.5485 11.7249 23.6293 11.6987 23.6963 11.65L20 6.56245L16.3037 11.65Z" fill="#F7AC16"/>
<path d="M20 6.5625L20 6.56245L16.3037 11.65C16.3629 11.693 16.433 11.7186 16.506 11.7238C16.579 11.7291 16.652 11.7139 16.7168 11.6798L20 9.95379H20V6.5625Z" fill="#F2D422"/>
<path d="M17.7579 9.6484L16.3037 11.65C16.3629 11.693 16.433 11.7186 16.506 11.7238C16.579 11.7291 16.652 11.7139 16.7168 11.6798L17.6821 11.1723C17.6329 11.128 17.5957 11.072 17.574 11.0095C17.5523 10.947 17.5467 10.8799 17.5579 10.8147L17.7579 9.6484Z" fill="#EFB616"/>
</g>
<g clip-path="url(#clip2_21_396)">
<path d="M39.664 4.35241L35.9934 3.81905L34.3518 0.492819C34.2082 0.201866 33.7919 0.201725 33.6482 0.492819L32.0067 3.81905L28.336 4.35241C28.015 4.39908 27.886 4.79489 28.1186 5.02153L30.7747 7.61062L30.1476 11.2665C30.1353 11.3386 30.1433 11.4128 30.1709 11.4806C30.1985 11.5484 30.2445 11.6071 30.3037 11.6501C30.3629 11.6932 30.433 11.7188 30.506 11.724C30.579 11.7293 30.652 11.714 30.7168 11.68L34 9.95398C37.5744 11.8331 37.3289 11.7251 37.4657 11.7251C37.7075 11.7251 37.8936 11.5071 37.8524 11.2665L37.2253 7.61062L39.8815 5.02153C40.1137 4.79505 39.9853 4.39912 39.664 4.35241Z" fill="#F7AC16"/>
<path d="M34 0.273964C33.9268 0.273968 33.8551 0.294449 33.7929 0.333091C33.7307 0.371734 33.6806 0.426998 33.6482 0.492636L32.0066 3.81886L28.336 4.35223C28.015 4.39889 27.886 4.79471 28.1186 5.02135L30.7747 7.61044L30.1476 11.2663C30.1353 11.3384 30.1433 11.4126 30.1709 11.4804C30.1985 11.5482 30.2445 11.6069 30.3037 11.6499C30.3629 11.693 30.433 11.7186 30.506 11.7238C30.579 11.7291 30.652 11.7139 30.7168 11.6798L34 9.95379H34V0.273964Z" fill="#F2D422"/>
<path d="M28.336 4.35223C28.015 4.39889 27.886 4.79471 28.1186 5.02135L30.7747 7.61044L30.1476 11.2663C30.1353 11.3384 30.1433 11.4126 30.1709 11.4804C30.1985 11.5482 30.2445 11.6069 30.3037 11.65C30.3629 11.693 30.433 11.7186 30.506 11.7238C30.579 11.7291 30.652 11.7139 30.7168 11.6798L34 9.95379C37.5744 11.8329 37.3289 11.7249 37.4657 11.7249C37.5485 11.7249 37.6293 11.6987 37.6963 11.65L32.0066 3.81884L28.336 4.35223Z" fill="#F7AC16"/>
<path d="M32.185 7.15887C29.3398 4.38549 29.4621 4.53413 29.4239 4.3903C29.4084 4.33252 29.4052 4.2653 29.4221 4.1944L28.336 4.35221C28.015 4.39887 27.886 4.79469 28.1186 5.02133L30.7747 7.61042L30.1476 11.2663C30.1353 11.3384 30.1433 11.4126 30.1709 11.4804C30.1985 11.5482 30.2445 11.6069 30.3037 11.65C30.3629 11.693 30.433 11.7186 30.506 11.7238C30.579 11.7291 30.652 11.7139 30.7168 11.6798L31.6821 11.1723C31.6329 11.128 31.5957 11.072 31.574 11.0095C31.5523 10.947 31.5467 10.88 31.5579 10.8147L32.185 7.15887Z" fill="#F48B19"/>
<path d="M28.1186 5.02135L30.7747 7.61044L30.1477 11.2663C30.1353 11.3384 30.1433 11.4126 30.1709 11.4804C30.1985 11.5482 30.2445 11.6069 30.3037 11.65C30.3629 11.693 30.433 11.7186 30.506 11.7238C30.579 11.7291 30.6521 11.7139 30.7168 11.6798L34 9.9538C37.5744 11.8329 37.3289 11.7249 37.4657 11.7249C37.7075 11.7249 37.8936 11.5069 37.8524 11.2663L37.2253 7.61044L28.0193 4.61921C27.9734 4.78362 28.0194 4.92465 28.1186 5.02135Z" fill="#F2D422"/>
<path d="M28.1186 5.02135L30.7747 7.61044L30.1477 11.2663C30.1353 11.3384 30.1433 11.4126 30.1709 11.4804C30.1985 11.5482 30.2445 11.6069 30.3037 11.65C30.3629 11.693 30.433 11.7186 30.506 11.7238C30.579 11.7291 30.6521 11.7139 30.7168 11.6798L31.6822 11.1723C31.633 11.128 31.5957 11.072 31.574 11.0095C31.5523 10.947 31.5468 10.88 31.5579 10.8147L32.185 7.15887L30.3597 5.37966L28.0193 4.61921C27.9734 4.78362 28.0194 4.92465 28.1186 5.02135Z" fill="#EFB616"/>
<path d="M30.1477 11.2663C30.1354 11.3384 30.1434 11.4126 30.171 11.4804C30.1986 11.5482 30.2446 11.6069 30.3038 11.65C30.363 11.693 30.4331 11.7186 30.5061 11.7238C30.5791 11.7291 30.6521 11.7139 30.7169 11.6798L34.0001 9.95379C37.5744 11.8329 37.3289 11.7249 37.4658 11.7249C37.7075 11.7249 37.8937 11.5069 37.8524 11.2663L37.2254 7.61044L39.8815 5.02135C39.9339 4.97025 39.971 4.90551 39.9885 4.83445C40.0061 4.76339 40.0034 4.68885 39.9808 4.61923L30.7748 7.61044L30.1477 11.2663Z" fill="#F7AC16"/>
<path d="M30.1477 11.2663C30.1354 11.3384 30.1434 11.4126 30.171 11.4804C30.1986 11.5482 30.2446 11.6069 30.3038 11.6499C30.363 11.693 30.4331 11.7186 30.5061 11.7238C30.5791 11.7291 30.6521 11.7139 30.7169 11.6798L31.6822 11.1723C31.633 11.128 31.5958 11.072 31.5741 11.0095C31.5524 10.947 31.5468 10.8799 31.558 10.8147L32.185 7.15887L32.1799 7.15388L30.7748 7.61044L30.1477 11.2663Z" fill="#F48B19"/>
<path d="M30.7168 11.6798L34 9.95379C37.5744 11.8329 37.3288 11.7249 37.4657 11.7249C37.7075 11.7249 37.8936 11.5069 37.8523 11.2663L37.2253 7.61044L39.8814 5.02135C40.1137 4.79487 39.9853 4.39894 39.664 4.35223L35.9934 3.81886L30.3037 11.65C30.3629 11.693 30.433 11.7186 30.506 11.7238C30.579 11.7291 30.6521 11.7139 30.7168 11.6798Z" fill="#F2D422"/>
<path d="M39.9807 4.61921L34 6.56246L30.3037 11.65C30.3629 11.693 30.433 11.7186 30.506 11.7239C30.579 11.7291 30.652 11.7139 30.7168 11.6798L34 9.9538C37.5744 11.8329 37.3288 11.7249 37.4657 11.7249C37.7075 11.7249 37.8936 11.5069 37.8523 11.2663L37.2253 7.61044L39.8814 5.02135C39.9339 4.97025 39.9709 4.90551 39.9885 4.83445C40.006 4.76338 40.0033 4.68883 39.9807 4.61921Z" fill="#F7AC16"/>
<path d="M37.2253 7.61044L34 6.56245L30.3037 11.65C30.3629 11.693 30.433 11.7186 30.506 11.7238C30.579 11.7291 30.652 11.7139 30.7168 11.6798L34 9.95379C37.5744 11.8329 37.3288 11.7249 37.4657 11.7249C37.7075 11.7249 37.8936 11.5069 37.8523 11.2663L37.2253 7.61044Z" fill="#F2D422"/>
<path d="M30.3037 11.65C30.3629 11.693 30.433 11.7186 30.506 11.7238C30.579 11.7291 30.652 11.7139 30.7168 11.6798L34 9.95379C37.5744 11.8329 37.3288 11.7249 37.4657 11.7249C37.5485 11.7249 37.6293 11.6987 37.6963 11.65L34 6.56245L30.3037 11.65Z" fill="#F7AC16"/>
<path d="M34 6.5625L34 6.56245L30.3037 11.65C30.3629 11.693 30.433 11.7186 30.506 11.7238C30.579 11.7291 30.652 11.7139 30.7168 11.6798L34 9.95379H34V6.5625Z" fill="#F2D422"/>
<path d="M31.7579 9.6484L30.3037 11.65C30.3629 11.693 30.433 11.7186 30.506 11.7238C30.579 11.7291 30.652 11.7139 30.7168 11.6798L31.6821 11.1723C31.6329 11.128 31.5957 11.072 31.574 11.0095C31.5523 10.947 31.5467 10.8799 31.5579 10.8147L31.7579 9.6484Z" fill="#EFB616"/>
</g>
<defs>
<clipPath id="clip0_21_396">
<rect width="12" height="12" fill="white"/>
</clipPath>
<clipPath id="clip1_21_396">
<rect width="12" height="12" fill="white" transform="translate(14)"/>
</clipPath>
<clipPath id="clip2_21_396">
<rect width="12" height="12" fill="white" transform="translate(28)"/>
</clipPath>
</defs>
</svg>
