<svg width="22" height="22" viewBox="0 0 22 22" fill="none" xmlns="http://www.w3.org/2000/svg">
<g clip-path="url(#clip0_17_136)">
<path d="M3.79298 17.2475C3.6821 17.1362 3.57837 17.0179 3.4824 16.8935L0.432652 19.9433L2.273 21.7837L5.32284 18.7339C5.19843 18.6379 5.08019 18.5342 4.96882 18.4233L3.79298 17.2475ZM18.5173 16.8936C18.4214 17.018 18.3177 17.1362 18.2068 17.2476L17.031 18.4234C16.9197 18.5342 16.8014 18.638 16.677 18.7339L19.7265 21.7834L21.5669 19.943L18.5173 16.8936ZM12.0999 17.8333L12.2277 17.9611C13.1735 18.9069 14.7069 18.9069 15.6528 17.9611L17.7463 15.8677C18.6921 14.9218 18.6921 13.3884 17.7463 12.4426L17.6184 12.3148L16.2352 13.6947L14.6775 12.1369L11.9173 14.8971L13.4751 16.4548L12.0999 17.8333ZM10.0797 7.53565L6.20452 3.66051C4.55309 2.00906 2.48387 0.837501 0.218109 0.271095L0 0.216568L0.0545273 0.43472C0.620969 2.70047 1.79254 4.76967 3.44399 6.42108L7.31917 10.2963L10.0797 7.53565Z" fill="black"/>
<path d="M18.5561 6.42082C20.2075 4.7694 21.3791 2.7002 21.9456 0.434458L22.0001 0.216263L21.7819 0.27079C19.5162 0.837231 17.447 2.00881 15.7956 3.66025L5.7613 13.6946L4.38111 12.3144L4.25332 12.4422C3.30749 13.388 3.30749 14.9215 4.25332 15.8673L6.3492 17.9632C7.29503 18.9091 8.82846 18.9091 9.77433 17.9632L9.90212 17.8354L8.52183 16.4552L18.5561 6.42082Z" fill="black"/>
</g>
<defs>
<clipPath id="clip0_17_136">
<rect width="22" height="22" fill="white"/>
</clipPath>
</defs>
</svg>
